# xmcd
#
# Track frame offsets:
#	150
#	20507
#	39998
#	63459
#	67758
#	73024
#	85531
#	101883
#	118738
#	131332
#	145887
#
# Disc length: 2101 seconds
#
# Revision: 0
# Processed by: cddbd v1.5.1PL0 Copyright (c) Steve Scherf et al.
# Submitted via: dBpowerAMP V4.0
#
DISCID=9308330b
DTITLE=Joan Baez - En Chile
DYEAR=1981
DGENRE=Latin
TTITLE0=gracias a la vida
TTITLE1=con tres heridas viene
TTITLE2=los hijos de los 80
TTITLE3=aire israeli
TTITLE4=cansion del folklore tunecino
TTITLE5=soplando en el viento
TTITLE6=no llores por mi Argentina
TTITLE7=the boxer
TTITLE8=te recuerdo Amanda
TTITLE9=imagina
TTITLE10=balada de Sacco y Vanzetti
EXTD=
EXTT0=
EXTT1=
EXTT2=
EXTT3=
EXTT4=
EXTT5=
EXTT6=
EXTT7=
EXTT8=
EXTT9=
EXTT10=
PLAYORDER=
